<mxfile host="65bd71144e">
    <diagram id="om_oi36MF1jIUzn6utDR" name="ページ1">
        <mxGraphModel dx="3064" dy="1157" grid="1" gridSize="10" guides="1" tooltips="1" connect="1" arrows="1" fold="1" page="1" pageScale="1" pageWidth="1200" pageHeight="900" background="#ffffff" math="0" shadow="0">
            <root>
                <mxCell id="0"/>
                <mxCell id="1" parent="0"/>
                <mxCell id="140" value="pod" style="rounded=0;whiteSpace=wrap;html=1;align=left;verticalAlign=top;spacing=10;fillColor=none;" vertex="1" parent="1">
                    <mxGeometry x="880" y="280" width="160" height="200" as="geometry"/>
                </mxCell>
                <mxCell id="80" value="" style="endArrow=none;html=1;fontColor=#CCCCCC;strokeColor=#666666;" edge="1" parent="1">
                    <mxGeometry width="50" height="50" relative="1" as="geometry">
                        <mxPoint x="-480" y="120" as="sourcePoint"/>
                        <mxPoint x="1680" y="120" as="targetPoint"/>
                    </mxGeometry>
                </mxCell>
                <mxCell id="81" value="" style="endArrow=none;html=1;fontColor=#CCCCCC;strokeColor=#666666;" edge="1" parent="1">
                    <mxGeometry width="50" height="50" relative="1" as="geometry">
                        <mxPoint x="360" y="40" as="sourcePoint"/>
                        <mxPoint x="360" y="1600" as="targetPoint"/>
                    </mxGeometry>
                </mxCell>
                <mxCell id="82" value="" style="endArrow=none;html=1;fontColor=#CCCCCC;strokeColor=#666666;" edge="1" parent="1">
                    <mxGeometry width="50" height="50" relative="1" as="geometry">
                        <mxPoint x="760" y="40" as="sourcePoint"/>
                        <mxPoint x="760" y="1600" as="targetPoint"/>
                    </mxGeometry>
                </mxCell>
                <mxCell id="83" value="Github" style="rounded=0;whiteSpace=wrap;html=1;fontStyle=1;labelBackgroundColor=default;" vertex="1" parent="1">
                    <mxGeometry x="400" y="20" width="320" height="80" as="geometry"/>
                </mxCell>
                <mxCell id="84" value="Repository" style="rounded=0;whiteSpace=wrap;html=1;align=left;verticalAlign=top;spacing=10;fillColor=none;fontStyle=1" vertex="1" parent="1">
                    <mxGeometry x="400" y="160" width="320" height="400" as="geometry"/>
                </mxCell>
                <mxCell id="85" value="feature" style="shape=cylinder3;whiteSpace=wrap;html=1;boundedLbl=1;backgroundOutline=1;size=15;" vertex="1" parent="1">
                    <mxGeometry x="480" y="200" width="160" height="80" as="geometry"/>
                </mxCell>
                <mxCell id="86" value="test" style="shape=cylinder3;whiteSpace=wrap;html=1;boundedLbl=1;backgroundOutline=1;size=15;" vertex="1" parent="1">
                    <mxGeometry x="480" y="320" width="160" height="80" as="geometry"/>
                </mxCell>
                <mxCell id="87" value="prod" style="shape=cylinder3;whiteSpace=wrap;html=1;boundedLbl=1;backgroundOutline=1;size=15;" vertex="1" parent="1">
                    <mxGeometry x="480" y="440" width="160" height="80" as="geometry"/>
                </mxCell>
                <mxCell id="88" value="Actions" style="rounded=0;whiteSpace=wrap;html=1;fillColor=none;align=left;verticalAlign=top;spacing=10;fontStyle=1" vertex="1" parent="1">
                    <mxGeometry x="400" y="640" width="320" height="520" as="geometry"/>
                </mxCell>
                <mxCell id="89" value="CI" style="rounded=0;whiteSpace=wrap;html=1;verticalAlign=top;align=left;spacing=10;fillColor=none;" vertex="1" parent="1">
                    <mxGeometry x="440" y="680" width="240" height="280" as="geometry"/>
                </mxCell>
                <mxCell id="91" value="CD" style="rounded=0;whiteSpace=wrap;html=1;verticalAlign=top;align=left;spacing=10;fillColor=none;" vertex="1" parent="1">
                    <mxGeometry x="440" y="1000" width="240" height="120" as="geometry"/>
                </mxCell>
                <mxCell id="93" value="静的解析" style="rounded=0;whiteSpace=wrap;html=1;" vertex="1" parent="1">
                    <mxGeometry x="480" y="720" width="160" height="40" as="geometry"/>
                </mxCell>
                <mxCell id="94" value="Build" style="rounded=0;whiteSpace=wrap;html=1;" vertex="1" parent="1">
                    <mxGeometry x="480" y="800" width="160" height="40" as="geometry"/>
                </mxCell>
                <mxCell id="95" value="Test" style="rounded=0;whiteSpace=wrap;html=1;" vertex="1" parent="1">
                    <mxGeometry x="480" y="880" width="160" height="40" as="geometry"/>
                </mxCell>
                <mxCell id="96" value="Deploy" style="rounded=0;whiteSpace=wrap;html=1;" vertex="1" parent="1">
                    <mxGeometry x="480" y="1040" width="160" height="40" as="geometry"/>
                </mxCell>
                <mxCell id="97" value="" style="endArrow=classic;html=1;entryX=0.5;entryY=0;entryDx=0;entryDy=0;entryPerimeter=0;exitX=0.5;exitY=1;exitDx=0;exitDy=0;exitPerimeter=0;" edge="1" parent="1" source="85" target="86">
                    <mxGeometry width="50" height="50" relative="1" as="geometry">
                        <mxPoint x="870" y="530" as="sourcePoint"/>
                        <mxPoint x="920" y="480" as="targetPoint"/>
                    </mxGeometry>
                </mxCell>
                <mxCell id="98" value="" style="endArrow=classic;html=1;entryX=0.5;entryY=0;entryDx=0;entryDy=0;entryPerimeter=0;exitX=0.5;exitY=1;exitDx=0;exitDy=0;exitPerimeter=0;" edge="1" parent="1" source="86" target="87">
                    <mxGeometry width="50" height="50" relative="1" as="geometry">
                        <mxPoint x="920" y="710" as="sourcePoint"/>
                        <mxPoint x="970" y="660" as="targetPoint"/>
                    </mxGeometry>
                </mxCell>
                <mxCell id="99" value="" style="endArrow=classic;html=1;exitX=0.5;exitY=1;exitDx=0;exitDy=0;entryX=0.5;entryY=0;entryDx=0;entryDy=0;" edge="1" parent="1" source="84" target="88">
                    <mxGeometry width="50" height="50" relative="1" as="geometry">
                        <mxPoint x="920" y="710" as="sourcePoint"/>
                        <mxPoint x="970" y="660" as="targetPoint"/>
                    </mxGeometry>
                </mxCell>
                <mxCell id="100" value="" style="endArrow=classic;html=1;exitX=0.5;exitY=1;exitDx=0;exitDy=0;entryX=0.5;entryY=0;entryDx=0;entryDy=0;" edge="1" parent="1" source="93" target="94">
                    <mxGeometry width="50" height="50" relative="1" as="geometry">
                        <mxPoint x="920" y="710" as="sourcePoint"/>
                        <mxPoint x="970" y="660" as="targetPoint"/>
                    </mxGeometry>
                </mxCell>
                <mxCell id="101" value="" style="endArrow=classic;html=1;exitX=0.5;exitY=1;exitDx=0;exitDy=0;entryX=0.5;entryY=0;entryDx=0;entryDy=0;" edge="1" parent="1" source="94" target="95">
                    <mxGeometry width="50" height="50" relative="1" as="geometry">
                        <mxPoint x="920" y="710" as="sourcePoint"/>
                        <mxPoint x="970" y="660" as="targetPoint"/>
                    </mxGeometry>
                </mxCell>
                <mxCell id="102" value="" style="endArrow=classic;html=1;entryX=0.5;entryY=0;entryDx=0;entryDy=0;exitX=0.5;exitY=1;exitDx=0;exitDy=0;" edge="1" parent="1" source="89" target="91">
                    <mxGeometry width="50" height="50" relative="1" as="geometry">
                        <mxPoint x="920" y="710" as="sourcePoint"/>
                        <mxPoint x="970" y="660" as="targetPoint"/>
                    </mxGeometry>
                </mxCell>
                <mxCell id="103" value="Packages" style="rounded=0;whiteSpace=wrap;html=1;fillColor=none;align=left;verticalAlign=top;spacing=10;fontStyle=1" vertex="1" parent="1">
                    <mxGeometry x="400" y="1240" width="320" height="360" as="geometry"/>
                </mxCell>
                <mxCell id="104" value="Nuget" style="rounded=0;whiteSpace=wrap;html=1;" vertex="1" parent="1">
                    <mxGeometry x="480" y="1280" width="160" height="40" as="geometry"/>
                </mxCell>
                <mxCell id="105" value="npm" style="rounded=0;whiteSpace=wrap;html=1;" vertex="1" parent="1">
                    <mxGeometry x="480" y="1360" width="160" height="40" as="geometry"/>
                </mxCell>
                <mxCell id="106" value="pip" style="rounded=0;whiteSpace=wrap;html=1;" vertex="1" parent="1">
                    <mxGeometry x="480" y="1440" width="160" height="40" as="geometry"/>
                </mxCell>
                <mxCell id="107" value="" style="endArrow=classic;html=1;exitX=0.5;exitY=1;exitDx=0;exitDy=0;entryX=0.5;entryY=0;entryDx=0;entryDy=0;" edge="1" parent="1" source="88" target="103">
                    <mxGeometry width="50" height="50" relative="1" as="geometry">
                        <mxPoint x="920" y="820" as="sourcePoint"/>
                        <mxPoint x="630" y="1220" as="targetPoint"/>
                    </mxGeometry>
                </mxCell>
                <mxCell id="108" value="検証環境&lt;div&gt;(Server)&lt;/div&gt;" style="rounded=0;whiteSpace=wrap;html=1;fontStyle=1" vertex="1" parent="1">
                    <mxGeometry x="800" y="20" width="360" height="80" as="geometry"/>
                </mxCell>
                <mxCell id="109" value="" style="endArrow=none;html=1;fontColor=#CCCCCC;strokeColor=#666666;" edge="1" parent="1">
                    <mxGeometry width="50" height="50" relative="1" as="geometry">
                        <mxPoint x="1280" y="40" as="sourcePoint"/>
                        <mxPoint x="1280" y="1600" as="targetPoint"/>
                    </mxGeometry>
                </mxCell>
                <mxCell id="110" value="本番環境&lt;div&gt;(Server)&lt;/div&gt;" style="rounded=0;whiteSpace=wrap;html=1;fontStyle=1" vertex="1" parent="1">
                    <mxGeometry x="1320" y="20" width="320" height="80" as="geometry"/>
                </mxCell>
                <mxCell id="111" value="開発者&lt;div&gt;(Service)&lt;/div&gt;" style="rounded=0;whiteSpace=wrap;html=1;fontStyle=1" vertex="1" parent="1">
                    <mxGeometry y="20" width="320" height="80" as="geometry"/>
                </mxCell>
                <mxCell id="112" value="開発者&lt;div&gt;(Framework)&lt;/div&gt;" style="rounded=0;whiteSpace=wrap;html=1;fontStyle=1" vertex="1" parent="1">
                    <mxGeometry x="-400" y="20" width="320" height="80" as="geometry"/>
                </mxCell>
                <mxCell id="113" value="" style="endArrow=none;html=1;fontColor=#CCCCCC;strokeColor=#666666;" edge="1" parent="1">
                    <mxGeometry width="50" height="50" relative="1" as="geometry">
                        <mxPoint x="-40" y="40" as="sourcePoint"/>
                        <mxPoint x="-40" y="1600" as="targetPoint"/>
                    </mxGeometry>
                </mxCell>
                <mxCell id="114" value="Service領域" style="rounded=0;whiteSpace=wrap;html=1;align=left;verticalAlign=top;spacing=10;fillColor=none;fontStyle=1" vertex="1" parent="1">
                    <mxGeometry x="800" y="160" width="440" height="640" as="geometry"/>
                </mxCell>
                <mxCell id="115" value="Client領域（WebApp）" style="rounded=0;whiteSpace=wrap;html=1;align=left;verticalAlign=top;spacing=10;fillColor=none;fontStyle=1" vertex="1" parent="1">
                    <mxGeometry x="800" y="920" width="320" height="600" as="geometry"/>
                </mxCell>
                <mxCell id="116" value="Service領域" style="rounded=0;whiteSpace=wrap;html=1;align=left;verticalAlign=top;spacing=10;fillColor=none;fontStyle=1" vertex="1" parent="1">
                    <mxGeometry x="1320" y="160" width="320" height="680" as="geometry"/>
                </mxCell>
                <mxCell id="117" value="Client領域（WebApp）" style="rounded=0;whiteSpace=wrap;html=1;align=left;verticalAlign=top;spacing=10;fillColor=none;fontStyle=1" vertex="1" parent="1">
                    <mxGeometry x="1320" y="920" width="320" height="600" as="geometry"/>
                </mxCell>
                <mxCell id="118" value="k8s" style="rounded=0;whiteSpace=wrap;html=1;align=left;verticalAlign=top;spacing=10;fillColor=none;fontStyle=1" vertex="1" parent="1">
                    <mxGeometry x="840" y="240" width="240" height="520" as="geometry"/>
                </mxCell>
                <mxCell id="119" value="k8s" style="rounded=0;whiteSpace=wrap;html=1;align=left;verticalAlign=top;spacing=10;fillColor=none;" vertex="1" parent="1">
                    <mxGeometry x="1360" y="240" width="240" height="560" as="geometry"/>
                </mxCell>
                <mxCell id="120" value="k8s" style="rounded=0;whiteSpace=wrap;html=1;align=left;verticalAlign=top;spacing=10;fillColor=none;" vertex="1" parent="1">
                    <mxGeometry x="840" y="1000" width="240" height="480" as="geometry"/>
                </mxCell>
                <mxCell id="121" value="k8s" style="rounded=0;whiteSpace=wrap;html=1;align=left;verticalAlign=top;spacing=10;fillColor=none;" vertex="1" parent="1">
                    <mxGeometry x="1360" y="1000" width="240" height="480" as="geometry"/>
                </mxCell>
                <mxCell id="122" value="" style="endArrow=none;html=1;fontColor=#CCCCCC;strokeColor=#666666;" edge="1" parent="1">
                    <mxGeometry width="50" height="50" relative="1" as="geometry">
                        <mxPoint x="1680" y="40" as="sourcePoint"/>
                        <mxPoint x="1680" y="1600" as="targetPoint"/>
                    </mxGeometry>
                </mxCell>
                <mxCell id="125" value="istio" style="rounded=0;whiteSpace=wrap;html=1;align=center;verticalAlign=middle;spacing=10;fillColor=none;" vertex="1" parent="1">
                    <mxGeometry x="1120" y="240" width="80" height="520" as="geometry"/>
                </mxCell>
                <mxCell id="132" value="service" style="rounded=0;whiteSpace=wrap;html=1;" vertex="1" parent="1">
                    <mxGeometry x="900" y="320" width="120" height="40" as="geometry"/>
                </mxCell>
                <mxCell id="133" value="envoy" style="rounded=0;whiteSpace=wrap;html=1;" vertex="1" parent="1">
                    <mxGeometry x="900" y="400" width="120" height="40" as="geometry"/>
                </mxCell>
                <mxCell id="139" value="crates.io" style="rounded=0;whiteSpace=wrap;html=1;" vertex="1" parent="1">
                    <mxGeometry x="480" y="1520" width="160" height="40" as="geometry"/>
                </mxCell>
                <mxCell id="141" value="pod" style="rounded=0;whiteSpace=wrap;html=1;align=left;verticalAlign=top;spacing=10;fillColor=none;" vertex="1" parent="1">
                    <mxGeometry x="880" y="520" width="160" height="200" as="geometry"/>
                </mxCell>
                <mxCell id="142" value="service" style="rounded=0;whiteSpace=wrap;html=1;" vertex="1" parent="1">
                    <mxGeometry x="900" y="560" width="120" height="40" as="geometry"/>
                </mxCell>
                <mxCell id="143" value="envoy" style="rounded=0;whiteSpace=wrap;html=1;" vertex="1" parent="1">
                    <mxGeometry x="900" y="640" width="120" height="40" as="geometry"/>
                </mxCell>
                <mxCell id="148" value="" style="endArrow=classic;html=1;entryX=0;entryY=0.5;entryDx=0;entryDy=0;exitX=1;exitY=0.5;exitDx=0;exitDy=0;" edge="1" parent="1" source="96" target="118">
                    <mxGeometry width="50" height="50" relative="1" as="geometry">
                        <mxPoint x="570" y="810" as="sourcePoint"/>
                        <mxPoint x="620" y="760" as="targetPoint"/>
                        <Array as="points">
                            <mxPoint x="740" y="1060"/>
                            <mxPoint x="740" y="500"/>
                        </Array>
                    </mxGeometry>
                </mxCell>
                <mxCell id="149" value="" style="endArrow=classic;startArrow=classic;html=1;entryX=0.5;entryY=1;entryDx=0;entryDy=0;exitX=0.5;exitY=0;exitDx=0;exitDy=0;" edge="1" parent="1" source="133" target="132">
                    <mxGeometry width="50" height="50" relative="1" as="geometry">
                        <mxPoint x="570" y="700" as="sourcePoint"/>
                        <mxPoint x="620" y="650" as="targetPoint"/>
                    </mxGeometry>
                </mxCell>
                <mxCell id="150" value="" style="endArrow=classic;startArrow=classic;html=1;entryX=0.5;entryY=1;entryDx=0;entryDy=0;exitX=0.5;exitY=0;exitDx=0;exitDy=0;" edge="1" parent="1" source="143" target="142">
                    <mxGeometry width="50" height="50" relative="1" as="geometry">
                        <mxPoint x="570" y="700" as="sourcePoint"/>
                        <mxPoint x="620" y="650" as="targetPoint"/>
                    </mxGeometry>
                </mxCell>
                <mxCell id="151" value="" style="endArrow=classic;html=1;exitX=1;exitY=0.5;exitDx=0;exitDy=0;" edge="1" parent="1" source="133">
                    <mxGeometry width="50" height="50" relative="1" as="geometry">
                        <mxPoint x="570" y="700" as="sourcePoint"/>
                        <mxPoint x="1120" y="420" as="targetPoint"/>
                    </mxGeometry>
                </mxCell>
                <mxCell id="152" value="" style="endArrow=classic;html=1;exitX=1;exitY=0.5;exitDx=0;exitDy=0;" edge="1" parent="1" source="143">
                    <mxGeometry width="50" height="50" relative="1" as="geometry">
                        <mxPoint x="860" y="620" as="sourcePoint"/>
                        <mxPoint x="1120" y="660" as="targetPoint"/>
                    </mxGeometry>
                </mxCell>
                <mxCell id="153" value="" style="endArrow=classic;startArrow=classic;html=1;entryX=1;entryY=1;entryDx=0;entryDy=0;exitX=1;exitY=0;exitDx=0;exitDy=0;" edge="1" parent="1" source="143" target="133">
                    <mxGeometry width="50" height="50" relative="1" as="geometry">
                        <mxPoint x="630" y="520" as="sourcePoint"/>
                        <mxPoint x="680" y="470" as="targetPoint"/>
                        <Array as="points">
                            <mxPoint x="1060" y="600"/>
                            <mxPoint x="1060" y="480"/>
                        </Array>
                    </mxGeometry>
                </mxCell>
            </root>
        </mxGraphModel>
    </diagram>
</mxfile>